<svg xmlns="http://www.w3.org/2000/svg" width="117.526" height="18" viewBox="0 0 117.526 18">
  <g id="Layer_2" data-name="Layer 2" transform="translate(0.004 0.012)">
    <g id="Layer_1" data-name="Layer 1" transform="translate(-0.004 -0.012)">
      <path id="Path_330" data-name="Path 330" d="M27.058,9.2v6.275a2.437,2.437,0,0,1-.5,1.642,2.239,2.239,0,0,1-3.991-1.462c-.017-1.951,0-3.9,0-5.856a9.371,9.371,0,0,0-.031-.939c-.01-.123-.071-.3-.159-.339a.391.391,0,0,0-.349.121c-.46.609-.916,1.221-1.33,1.862a.644.644,0,0,0,.063.556c.318.5.682.96,1.025,1.441a3.792,3.792,0,0,1,.337.519c.295.6.113.922-.567.954s-1.324,0-1.985,0h-.627a1.125,1.125,0,0,0-1.031.573c-.506.786-1.046,1.556-1.592,2.3a2.288,2.288,0,0,1-1.905,1.086A2.214,2.214,0,0,1,12.5,14.554c.5-.759,1.063-1.464,1.594-2.186.163-.226.322-.454.471-.686a.924.924,0,0,0-.435-1.255c-.077-.029-.253.065-.316.151-.456.613-.9,1.238-1.334,1.862-.979,1.391-1.96,2.778-2.928,4.183-.822,1.188-1.288,1.713-3.181,1.063A8.775,8.775,0,0,1,.1,10.27,9.083,9.083,0,0,1,14.272,1.607a2.216,2.216,0,0,1-.157,3.725,2.244,2.244,0,0,1-2.353-.151,4.848,4.848,0,0,0-2.629-.837A4.792,4.792,0,0,0,4.462,8.164a4.733,4.733,0,0,0,4.06,5.6c.174.017.349,0,.523.019.391.036.554-.1.546-.529-.025-1.219.065-2.445-.029-3.658a1.732,1.732,0,0,1,1.905-1.91c1.736.1,3.482.01,5.229.033a1.221,1.221,0,0,0,1.1-.565c1.579-2.027,3.2-4.022,4.834-6A2.308,2.308,0,0,1,25.418.409a2.55,2.55,0,0,1,1.638,2.422C27.062,4.954,27.058,7.079,27.058,9.2Z" transform="translate(0.004 0.012)" fill="#e43d30"/>
      <path id="Path_331" data-name="Path 331" d="M155.22,9.378c0,2.194-.017,4.392,0,6.584a2.226,2.226,0,0,1-1.28,2.092,2.116,2.116,0,0,1-2.265-.192,1.914,1.914,0,0,1-.883-1.772q.023-2.663,0-5.329c0-.527-.063-1.046-.1-1.577-.345.385-.7.761-1.033,1.157q-1.046,1.24-2.056,2.493c-.6.743-.6.747.04,1.518.466.561.943,1.115,1.408,1.673a6.737,6.737,0,0,1,.569.745c.418.673.115,1.3-.657,1.305-2.265.025-4.53,0-6.8.019a.893.893,0,0,1-.9-.571c-.163-.368.036-.657.274-.937.726-.837,1.418-1.711,2.14-2.548.209-.234.333-.418.082-.711-1.065-1.282-2.106-2.585-3.158-3.876-.04-.048-.119-.065-.18-.1a.593.593,0,0,0-.073.18V15.81a2.483,2.483,0,0,1-.454,1.565,2.3,2.3,0,0,1-2.51.837,2.439,2.439,0,0,1-1.579-2.023V3.011A2.293,2.293,0,0,1,137.1.809a2.254,2.254,0,0,1,2.8.65c1,1.2,1.974,2.424,2.96,3.637.768.941,1.55,1.882,2.3,2.83.274.347.429.3.688-.017.805-1,1.638-1.981,2.464-2.964,1.027-1.226,2.039-2.46,3.091-3.662a1.882,1.882,0,0,1,2.148-.6,2.111,2.111,0,0,1,1.673,2.207C155.228,5.057,155.22,7.217,155.22,9.378Z" transform="translate(-107.403 -0.44)" fill="#e43d30"/>
      <path id="Path_332" data-name="Path 332" d="M235.5,9.467V2.355c0-1.242.448-1.713,1.673-1.726C239.4.6,241.628.59,243.864.6a2.011,2.011,0,0,1,2.125,1.96,1.928,1.928,0,0,1-1.939,2.006c-1.184.023-2.368.025-3.556,0-.473-.013-.6.167-.581.6.027.59.029,1.184,0,1.776-.021.429.159.535.552.521.7-.025,1.393-.017,2.092,0A1.9,1.9,0,0,1,244.5,9.222a1.916,1.916,0,0,1-1.845,2,21.285,21.285,0,0,1-2.192,0c-.389,0-.584.082-.55.517.061.784.086,1.573.128,2.359.726.019,1.449.048,2.175.054.906.01,1.811,0,2.719,0a3.89,3.89,0,0,1,.627.013.372.372,0,0,1,.278.6c-.644.947-1.278,1.9-1.972,2.809a2,2,0,0,1-1.646.757c-1.74,0-3.482.017-5.229,0-1.046-.013-1.487-.492-1.491-1.556C235.493,14.338,235.5,11.9,235.5,9.467Z" transform="translate(-186.24 -0.47)" fill="#e43d30"/>
      <path id="Path_333" data-name="Path 333" d="M442.387,18.051h-3.029c-.174,0-.349.013-.521,0-.784-.063-.922-.312-.485-.964.521-.776,1.077-1.529,1.621-2.288a1.971,1.971,0,0,1,1.857-.916c.97.067,1.949.029,2.928,0a5.775,5.775,0,0,0,1.228-.159,1.006,1.006,0,0,0,.5-1.751,3.048,3.048,0,0,0-.858-.573c-.818-.372-1.652-.7-2.479-1.046a9.016,9.016,0,0,1-2.585-1.516,4.827,4.827,0,0,1,.611-7.684,5.982,5.982,0,0,1,3.2-1.035,7.956,7.956,0,0,1,3.38.418,5.892,5.892,0,0,1,3.085,2.654,2.1,2.1,0,0,1-.494,2.792,2.154,2.154,0,0,1-2.834-.226c-.324-.36-.627-.743-.935-1.115a1.91,1.91,0,0,0-2.244-.558,1.192,1.192,0,0,0-.448,2.018,7.8,7.8,0,0,0,1.83,1.132A24.71,24.71,0,0,1,449.3,9.1a4.115,4.115,0,0,1,1.636,1.968c.851,2.612.123,5.612-3.066,6.6a8.419,8.419,0,0,1-2.761.4C444.2,18.03,443.292,18.053,442.387,18.051Z" transform="translate(-346.472 -0.079)" fill="#e43d30"/>
      <path id="Path_334" data-name="Path 334" d="M503.29,18.033h-3.024c-.174,0-.349.013-.523,0-.784-.063-.92-.312-.483-.964.521-.776,1.077-1.529,1.621-2.288a1.968,1.968,0,0,1,1.855-.916c.97.067,1.949.029,2.928,0a5.756,5.756,0,0,0,1.226-.159,1.006,1.006,0,0,0,.5-1.751,3.018,3.018,0,0,0-.858-.573c-.816-.372-1.65-.7-2.479-1.046a9.045,9.045,0,0,1-2.585-1.516,4.827,4.827,0,0,1,.613-7.684A5.976,5.976,0,0,1,505.285.1a7.652,7.652,0,0,1,3.378.418,5.889,5.889,0,0,1,3.087,2.654,2.1,2.1,0,0,1-.494,2.792,2.154,2.154,0,0,1-2.834-.226c-.326-.36-.627-.743-.935-1.115a1.914,1.914,0,0,0-2.246-.558,1.193,1.193,0,0,0-.448,2.018,7.857,7.857,0,0,0,1.832,1.132A24.685,24.685,0,0,1,510.2,9.079a4.108,4.108,0,0,1,1.638,1.968c.849,2.612.123,5.612-3.068,6.6a8.413,8.413,0,0,1-2.765.4C505.1,18.012,504.2,18.035,503.29,18.033Z" transform="translate(-394.64 -0.062)" fill="#e43d30"/>
      <path id="Path_335" data-name="Path 335" d="M335.443.2c-1.1.1-1.516,1.046-1.542,2.363-.04,2.148-.01,4.3-.01,6.444h0v5.921c0,.349.029.7.021,1.046-.036,1.531,1.01,2.571,2.911,1.673a1.68,1.68,0,0,0,.837-1.173,12.088,12.088,0,0,0,.209-2.47V10.963H339.8a4.916,4.916,0,0,0,4.238-2.3,5.934,5.934,0,0,0,.855-3.606,5.126,5.126,0,0,0-5.216-4.97h-2.958Zm2.686,5.242V3.312c0-.209.063-.3.437-.328a3.709,3.709,0,0,1,2.9.837,2.135,2.135,0,0,1,.446,2.4c-.4,1.081-.891,1.309-2.359,1.531a4.493,4.493,0,0,1-.722.027h-.458c-.157,0-.209-.023-.209-.031a.194.194,0,0,1-.027-.155.391.391,0,0,0,0-.086Z" transform="translate(-264.046 -0.065)" fill="#e43d30"/>
      <path id="Path_336" data-name="Path 336" d="M368.827,12.457a20.235,20.235,0,0,0-1.719,2.426,2.281,2.281,0,0,0,.372,3.127,2.213,2.213,0,0,0,3.1-.379c.33-.481.68-.947,1.017-1.424,1.431-2.014.7-1.621,3.19-1.7.586-.017,1.357.345,1.715-.387s-.351-1.18-.684-1.694c-.807-1.255-.837-1.255-.038-2.395A9.467,9.467,0,0,1,376.8,8.966c.042.466.115.933.119,1.4.013,1.882-.023,3.782.013,5.67.027,1.535.837,2.384,2.161,2.4a2.091,2.091,0,0,0,2.263-2.3c.044-2.186.01-4.371.01-6.557,0-2.066-.036-4.135.013-6.2a2.557,2.557,0,0,0-1.5-2.548,2.43,2.43,0,0,0-2.958.749c-.843.962-1.6,1.914-2.374,2.895l-1.295,1.753a7.109,7.109,0,0,1-1,1.357Z" transform="translate(-289.974 -0.47)" fill="#e43d30"/>
    </g>
  </g>
</svg>
