<?xml version="1.0" encoding="utf-8"?>
<!-- Generator: Adobe Illustrator 26.2.1, SVG Export Plug-In . SVG Version: 6.00 Build 0)  -->
<svg version="1.1" id="Layer_1" xmlns="http://www.w3.org/2000/svg" xmlns:xlink="http://www.w3.org/1999/xlink" x="0px" y="0px"
	 viewBox="0 0 330.3 28.9" style="enable-background:new 0 0 330.3 28.9;" xml:space="preserve">
<style type="text/css">
	.st0{display:none;}
	.st1{display:inline;}
	.st2{fill:#EF3E2D;}
	.st3{fill:#E43D30;}
</style>
<g id="Layer_1_00000088815769921347700740000009434260206024721323_" class="st0">
	<g id="Games_1_" class="st1">
		<path class="st2" d="M247.1,14.9c0,3.5,0,7.1,0,10.6c0,1.4-0.7,2.4-2.1,3c-1.4,0.5-2.5,0.3-3.6-0.6c-1-0.9-1.3-2-1.3-3.3
			c0-2.9,0-5.9,0-8.8c0-0.4,0-0.8,0-1.2c0-0.3,0-0.7-0.4-0.8c-0.4-0.1-0.6,0.1-0.8,0.4c-0.4,0.6-0.7,1.1-1.2,1.7
			c-0.8,1-0.7,1.9,0,2.8c0.5,0.7,1,1.3,1.4,2c0.6,1.1,0.2,1.8-1,1.6c-3.9-0.6-6.3,1.3-8.1,4.5c-1.2,2.1-3.1,2.6-5,1.5
			c-1.7-1-2.1-3.3-0.9-5.2c0.8-1.2,1.7-2.3,2.5-3.5c0.2-0.3,0.5-0.6,0.7-1c0.2-0.8-0.1-1.4-0.8-1.7c-0.6-0.3-0.8,0.4-1,0.7
			c-1.9,2.6-3.7,5.2-5.6,7.8c-0.3,0.4-0.6,0.9-0.9,1.3c-1.7,2.2-2.6,2.5-5.3,1.5c-9.1-3.2-11.2-11.9-9.3-18
			c2.6-8.9,14.2-13,21.9-7.8c2.1,1.4,2.6,3.3,1.4,5c-1,1.4-2.7,1.8-4.8,0.8c-1.4-0.7-2.8-1.3-4.4-1.3c-3.9,0-7.6,3.2-7.8,7
			c-0.2,4,2.8,7.7,6.8,8.2c1.4,0.2,1.8-0.2,1.8-1.7c0-1.7-0.1-3.4,0-5.1c0.1-2.1,0.7-2.8,2.8-2.9c2.6-0.1,5.2-0.1,7.8,0
			c1.4,0,2.3-0.4,3.1-1.6c2.1-3,4.5-5.8,6.9-8.6c1-1.2,2.3-2,3.9-1.8c2.1,0.3,3.3,1.7,3.3,4C247.2,8.1,247.1,11.5,247.1,14.9
			C247.1,14.9,247.1,14.9,247.1,14.9z"/>
		<path class="st2" d="M273.7,14.1c-2,2.2-3.7,4.1-5.3,6.1c-0.7,0.9-0.5,1.8,0.2,2.6c0.9,1,1.8,2,2.7,3c0.5,0.6,1,1.1,0.6,2
			c-0.4,0.7-1,0.8-1.7,0.8c-3.3,0-6.5,0-9.8,0c-0.7,0-1.4,0.1-1.8-0.7c-0.3-0.7,0-1.3,0.5-1.9c1-1.2,2-2.4,3-3.6
			c0.5-0.6,0.6-1.1,0.1-1.8c-1.5-1.8-3.1-3.7-4.6-5.5c-0.1-0.1-0.2-0.4-0.5-0.3c-0.4,0.1-0.2,0.4-0.2,0.7c0,2.9,0,5.9,0,8.8
			c0,1-0.1,2-0.7,2.9c-0.7,1.2-1.8,1.8-3.1,1.6c-1.4-0.1-2.6-0.7-3.1-2.2c-0.1-0.5-0.3-0.9-0.3-1.4c0-7-0.1-13.9,0-20.9
			c0-2,1-3.1,2.8-3.5c1.7-0.4,2.9,0.4,3.9,1.6c2.6,3.2,5.3,6.4,7.9,9.6c0.8,0.9,1.1,0.8,1.8-0.1c2.7-3.3,5.5-6.6,8.3-9.9
			c0.9-1,2-1.7,3.4-1.4c2,0.4,2.9,1.5,2.9,3.6c0,6.9,0,13.8,0,20.7c0,2.3-1.6,3.9-3.6,3.9c-1.9,0-3.4-1.6-3.4-3.8c0-2.9,0-5.7,0-8.6
			C273.7,15.8,273.7,15.1,273.7,14.1z"/>
		<path class="st2" d="M306,28.6c-2,0-4.1,0-6.1,0c-1.4,0-1.5-0.4-0.8-1.6c0-0.1,0.1-0.1,0.1-0.2c2.9-4.5,2.9-4.5,8.3-4.6
			c1.1,0,2.2-0.1,3.3-0.2c0.9-0.1,1.5-0.5,1.8-1.4c0.2-1-0.3-1.6-1.1-2c-1.1-0.6-2.2-1-3.3-1.5c-1.5-0.6-3-1.2-4.4-2.1
			c-2.6-1.7-4.1-4-3.8-7.2c0.3-3.1,2-5.3,4.8-6.7c4.2-2,10-1,13,2.2c0.7,0.7,1.2,1.5,1.5,2.4c0.5,1.4,0.2,2.6-0.9,3.5
			c-1.1,1-2.3,1-3.6,0.5c-1-0.4-1.6-1.1-2.2-2c-0.8-1.2-1.9-1.7-3.4-1.5c-0.9,0.1-1.5,0.6-1.8,1.4c-0.3,0.9,0,1.6,0.6,2.2
			c0.6,0.6,1.4,0.9,2.1,1.2c1.9,0.9,3.9,1.6,5.7,2.8c4.3,2.6,5.3,7.5,2.4,11.4c-1.5,2-3.5,3-6,3.1C310.1,28.6,308,28.5,306,28.6
			C306,28.5,306,28.5,306,28.6z"/>
		<path class="st2" d="M283.1,14.5c0-3.6,0-7.2,0-10.9c0-2.4,0.6-3,3-3c3.4-0.1,6.8-0.1,10.2,0c2,0,3.3,1.1,3.5,2.7
			c0.2,1.9-1,3.3-3.1,3.4c-1.6,0.1-3.3,0.1-4.9,0c-1,0-1.7,0.3-1.8,1.4c-0.2,2.1,0.1,2.9,1.4,3.1c1.1,0.2,2.2,0.2,3.3,0.3
			c1.7,0.2,2.6,1,2.7,2.5c0.1,1.6-0.7,2.8-2.3,3.2c-1.1,0.3-2.2,0.1-3.3,0.2c-1.7,0-1.8,0.1-1.9,1.9c0,0.3,0,0.5,0,0.8
			c0,1.3,0.6,1.9,1.8,2c1.8,0.1,3.7,0.1,5.5,0.1c0.5,0,1.1,0,1.6,0c0.6,0.1,0.9,0.4,0.5,1c-1.1,1.6-2.2,3.1-3.4,4.6
			c-0.7,0.8-1.8,0.9-2.8,1c-2.5,0-5,0.1-7.6,0c-2.1-0.1-2.7-0.8-2.7-3C283.1,22,283.1,18.3,283.1,14.5z"/>
	</g>
	<g id="Addicting_1_" class="st1">
		<path class="st2" d="M104.3,0.1c0.9,0,1.8,0,2.8,0c0.8,0,1.7,0.1,2,1s-0.2,1.6-0.7,2.2c-1.8,2-3.7,3.7-6.6,4
			c-4,0.4-6.3,2.9-6.6,6.4c-0.3,3.5,1.8,6.8,5,7.9c3.5,1.2,7-0.1,9.1-3.2c0.6-1,1.2-2,1.9-2.9c1-1.1,2.2-1.6,3.7-0.9
			c1.6,0.7,2.2,2,2,3.6c-0.2,1.8-1.1,3.3-2.2,4.7c-3.8,5.1-9,6.8-15,5.7c-5.4-1-9.2-4.2-10.8-9.6c-1.6-5.4-1.1-10.6,3.3-14.7
			C95.6,1.1,99.7-0.1,104.3,0.1z"/>
		<path class="st2" d="M49.5,12.5C49.1,6.8,45.3,2.3,39.8,1C35.9,0,32,0.4,28.1,0.5c-2,0-3.1,1.2-3.1,3.3c0.1,3.6,0,7.2,0,10.7
			c0,0,0,0,0,0c0,3.5-0.1,6.9,0,10.4c0.1,2.9,0.9,3.7,3.7,3.8c2.6,0.1,5.3,0.2,8,0c3.1-0.2,6.1-1.1,8.5-3.3
			C49.1,21.9,49.9,17.4,49.5,12.5z M40.7,19.9c-1.9,2.3-4.4,2.7-7.2,2.5c-1.2-0.1-1.4-1-1.4-2c0-2,0-3.9,0-5.9c0,0,0,0,0,0
			c0-1.7,0-3.5,0-5.2c0-1.7,0.8-2.5,2.5-2.7c2.6-0.3,5.5,1.2,6.7,3.5C43,13.5,42.8,17.2,40.7,19.9z"/>
		<path class="st2" d="M74.9,7.1c-1.6-3.3-4.4-5.2-7.9-6.1c-4-1-8-0.5-12-0.5c-1.7,0-2.8,1-2.8,2.8c0,7.4,0,14.8,0,22.1
			c0,2,1.1,3,2.9,3.2c1.6,0.1,3.2,0,4.8,0c0,0,0,0,0,0.1c1.3,0,2.5,0.1,3.8,0c4.2-0.3,8-1.6,10.4-5.3C77.4,18.2,77.7,12.7,74.9,7.1z
			 M69.4,15.5c-0.6,4.4-4,7.3-8,7.1c-1.5-0.1-2.3-0.6-2.3-2.3c0.1-1.7,0-3.5,0-5.2c0,0,0,0,0,0c0-1.7-0.1-3.5,0-5.2
			c0.2-2.6,1.7-3.7,4.2-3.2C67.2,7.4,70,11.5,69.4,15.5z"/>
		<path class="st2" d="M126.9,0.3c3.4,0,7,0,10.5,0c3.4,0,4.3,1.1,4.4,4.5c0.1,6.6,0.1,13.2,0,19.8c0,2.8-1.2,4.2-3.4,4.3
			c-2.1,0-3.6-1.5-3.6-4.2c-0.1-4.5,0-9,0-13.5c0-3.2-2.3-4.6-5.3-3.2c-1.4,0.7-1.1,1.9-1.1,3c0,4.1,0,8.1,0,12.1
			c0,1.2-0.1,2.3-0.5,3.4c-0.6,1.6-1.7,2.4-3.4,2.4c-1.5,0-2.5-0.9-3.2-2.3c-0.5-1.1-0.4-2.2-0.5-3.4c0-4.2,0-8.3,0-12.5
			c0-2.7-0.6-3-3.3-3c-2.3-0.1-4.6-0.1-6.9-0.1c-1.7,0-2.1-0.9-1.3-2.2c1.7-2.9,4-5,7.7-5"/>
		<path class="st2" d="M159.9,13.6c0-3.1-0.1-6.2,0-9.3c0.1-2.6,1.7-4,3.9-3.8c1.5,0.1,2.7,0.8,3,2.4c0.2,1,0.4,2.1,0.4,3.1
			c0,5.8,0,11.6,0,17.4c0,0.8-0.1,1.8-0.2,2.4c-0.5,1.7-1.3,2.7-2.8,3.1s-2.8-0.4-3.6-1.5c-1.4-2-2.6-4.1-4-6.1
			c-1.1-1.7-2.3-3.5-3.4-5.2c-0.2-0.4-0.5-0.8-1-0.7c-0.6,0.1-0.5,0.7-0.5,1.1c0,2.4,0,4.9,0,7.3c-0.1,3.6-1.2,5.3-3.6,5.3
			c-2.4,0-3.6-1.7-3.6-5.3c0-6.1,0-12.3,0-18.4c0-2.8,0.9-4.2,2.8-4.6c2.2-0.5,3.4,0.8,4.5,2.5C154.2,6.6,156.4,10.4,159.9,13.6z"/>
		<path class="st2" d="M21.7,14.7c0,3.5,0,6.9,0,10.4c0,1.6-0.9,2.8-2.4,3.5C18.1,29,17,28.7,16,28c-1.1-0.8-1.4-2.1-1.4-3.4
			c0-3.1,0-6.2,0-9.4c0-0.5,0.4-1.2-0.4-1.4c-0.7-0.2-1,0.5-1.3,0.9c-1.3,1.7-1.3,3.2,0,5c1.6,2.1,1.3,2.8-1.1,2.6
			c-3.4-0.3-5.4,1.4-7.1,4c-0.4,0.6-0.8,1.2-1.3,1.6c-1.1,0.9-2.3,1.3-3.8,0.4c-1.4-0.8-1.9-1.9-1.7-3.4c0.1-1.1,0.5-2.1,1.2-2.8
			c2.5-2.5,3.2-4.8,0.3-7.7c-1.1-1.1-0.2-2.5,1.6-2.2c3.9,0.8,6.3-1.1,8.3-4.1c1.5-2.2,3.3-4.1,5.1-6.1c1.2-1.4,2.7-2.2,4.6-1.4
			c2,0.8,2.7,2.3,2.7,4.3C21.7,8.2,21.7,11.4,21.7,14.7C21.7,14.7,21.7,14.7,21.7,14.7z"/>
		<path class="st2" d="M184.3,0.3c2.6-0.2,5.2,0.6,7.6,2.2c2.1,1.5,2.5,2.8,1.5,4.6c-1,1.8-2.6,2.4-4.7,1.3
			c-2.1-1.1-4.1-1.5-6.3-1.1c-3.3,0.6-5.8,3.3-6,6.7c-0.2,3.5,2,6.8,5.1,7.8c2.6,0.8,3.4,0.2,3.4-2.4c0-1.3,0-2.5,0-3.8
			c0.1-2.6,0.5-3.1,2.9-3.3c2.4-0.1,4.9-0.1,7.3,0c1.4,0.1,2.1,0.8,1.1,2.3c-1.4,2-2.2,4.8-5.4,4.6c-1.1-0.1-1.5,1-2,1.7
			c-1.3,1.9-2.6,3.8-4,5.7c-1.9,2.5-2.9,2.8-5.9,1.7c-6.6-2.3-10.5-9.1-9.4-15.9C170.7,4.9,176.3,0.2,184.3,0.3z"/>
		<path class="st2" d="M85.8,14.6c0,3.3,0.1,6.7,0,10c-0.1,2.9-1.2,4.2-3.4,4.2c-2.1,0-3.6-1.5-3.6-4.2c-0.1-6.8-0.1-13.6,0-20.4
			c0-2.4,1.5-3.8,3.6-3.8c2.2-0.1,3.3,1.2,3.4,3.8C85.8,7.7,85.8,11.1,85.8,14.6z"/>
	</g>
</g>
<g id="Layer_2_00000083049382858020970470000017082621350215426469_">
	<g>
		<g>
			<g>
				<g>
					<path class="st3" d="M125.2,0.4c3.5,0,7,0.1,10.5,0c2.8-0.1,4.4,1.1,4.4,4.3c0.1,6.6,0,13.1,0,19.6c0,2.6-1.9,4-4,3.9
						c-1.9-0.1-3.1-1.2-3.1-3.1c-0.1-2.9,0-5.7,0-8.6c0-2.5-0.1-5,0-7.5c0-1.1-0.4-1.5-1.4-1.4c-1.5,0.1-2.9,0.1-4.4,0.2
						c-0.1,1.4-0.3,2.9-0.3,4.3c-0.1,3.7,0,7.4,0,11.1c0,0.9-0.2,1.8-0.4,2.7c-0.3,1.6-1.6,2.2-3,2.3c-1.7,0.2-3-0.5-3.6-2
						c-0.4-1-0.5-2.1-0.5-3.2c-0.1-4.6-0.1-9.2,0-13.8c0-1.2-0.4-1.6-1.6-1.6c-2.5,0.1-5,0-7.5,0c-0.6,0-1.1,0.1-1.7,0
						c-0.9-0.2-1.4-1.1-0.8-1.9c1.1-1.5,2.3-2.9,3.5-4.3c0.8-1,1.9-1,3-1C118,0.4,121.6,0.4,125.2,0.4z"/>
				</g>
			</g>
		</g>
	</g>
	<g>
		<g>
			<g>
				<g>
					<path class="st3" d="M164.5,14.5c0,3.3,0.1,6.6,0,9.9c-0.1,2.7-1.6,4-4.3,3.8c-1.1-0.1-1.8-0.6-2.4-1.5
						c-2.1-3.4-4.3-6.8-6.5-10.2c-0.4-0.7-1-1.3-1.4-2c-0.1,0.8-0.3,1.5-0.3,2.3c0,2.6,0.1,5.2,0,7.7c-0.1,2.6-1.9,4.1-4.4,3.6
						c-1.3-0.2-2.4-0.8-2.7-2.4c-0.1-0.8-0.4-1.6-0.4-2.4c0-6.1,0-12.2,0-18.2c0-2.8,0.8-4,2.6-4.6c1.8-0.6,3.3,0,4.5,2
						c2,3.2,4,6.4,5.9,9.6c0.3,0.5,0.6,0.9,0.9,1.4c0.2,0.3,0.5,0.5,0.7,0.8c0.1-0.4,0.2-0.7,0.2-1.1c0-2.6,0-5.2,0-7.7
						c0-0.8,0.1-1.6,0.3-2.4c0.5-1.9,1.5-2.6,3.4-2.6c1.9,0,2.9,0.7,3.4,2.5c0.2,0.8,0.4,1.6,0.4,2.4
						C164.5,8.4,164.5,11.4,164.5,14.5C164.5,14.5,164.5,14.5,164.5,14.5z"/>
				</g>
			</g>
		</g>
	</g>
	<g>
		<g>
			<g>
				<g>
					<path class="st3" d="M26.3,14.4c0-3.4,0-6.8,0-10.2c0-2.8,0.9-3.6,3.6-3.7c2.4,0,4.8,0.1,7.2,0c7-0.2,12.6,4.2,13.4,12.4
						c0.4,4.3-0.6,8.4-3.8,11.7c-2.3,2.3-5,3.6-8.3,3.6c-2.9,0-5.7,0-8.6,0c-2.5,0-3.4-1-3.4-3.5C26.3,21.2,26.3,17.8,26.3,14.4z
						 M33.5,14.3c0,2.2,0,4.4,0,6.6c0,0.6,0.2,1,0.9,1.1c4.2,0.1,7.9-0.6,8.7-5.9c0.8-5.5-1.5-9.8-8.2-9.4c-1,0.1-1.5,0.5-1.5,1.6
						C33.6,10.3,33.5,12.3,33.5,14.3z"/>
				</g>
			</g>
		</g>
	</g>
	<g>
		<g>
			<g>
				<g>
					<path class="st3" d="M52.4,14.2c0-3.2,0-6.4,0-9.7c0-3.1,1-4,4.2-4c2.5,0,5,0,7.5,0c7.4,0,12.5,6.2,12.6,12.6
						c0.1,3.3-0.2,6.4-2.1,9.2c-2.4,3.7-5.8,5.8-10.3,5.8c-2.8,0-5.5,0-8.3,0c-2.4,0-3.5-1-3.6-3.5C52.4,21.2,52.4,17.7,52.4,14.2z
						 M59.6,14.6c0,2,0,4,0,6.1c0,0.1,0,0.2,0,0.3c-0.1,0.8,0.2,1.2,1.1,1.2c0.9,0,1.9,0.1,2.7-0.1c3.3-0.7,4.7-1.4,5.8-5
						c1.7-6.1-2-10.9-8.1-10.3c-1,0.1-1.5,0.5-1.5,1.5C59.6,10.3,59.6,12.4,59.6,14.6z"/>
				</g>
			</g>
		</g>
	</g>
	<g>
		<g>
			<g>
				<g>
					<path class="st3" d="M23.5,14.4c0,3.4,0,6.8,0,10.2c0,2.3-1.4,3.6-3.6,3.6c-2.1,0-3.4-1.4-3.5-3.8c-0.1-3,0-5.9,0-8.9
						c0-0.7-0.1-1.4-0.2-2.2c-0.6,0.6-1.2,1-1.6,1.7c-1.3,1.8-1.2,1.8,0.1,3.7c0.5,0.8,1.6,1.5,1.1,2.6c-0.6,1.1-1.8,0.6-2.7,0.6
						c-4,0.1-2.8-0.5-5.1,2.6c-0.5,0.7-1.1,1.5-1.6,2.2c-1.2,1.7-3.5,1.6-4.9,0.6c-1.5-1-1.7-3.1-0.6-4.9c0.8-1.3,1.7-2.6,2.7-3.8
						c0.7-0.8,0.6-1.4,0-2.1c-0.6-0.8-1.3-1.6-1.8-2.4c-0.8-1.3-0.4-2.1,1.1-2.2c0.1,0,0.2,0,0.3,0c1.7-0.1,3.7,0.4,5.1-0.3
						c1.4-0.7,2.2-2.6,3.3-4c1.6-2,3.2-4,4.9-5.9c1.4-1.5,3.1-1.9,4.7-1.1c1.6,0.8,2.4,2.1,2.4,4C23.4,7.9,23.5,11.2,23.5,14.4z"/>
				</g>
			</g>
		</g>
	</g>
	<g>
		<g>
			<g>
				<g>
					<path class="st3" d="M187.5,12.1c1.4,0,2.8,0,4.1,0c1.2,0.1,1.7,0.8,1.1,1.8c-0.8,1.4-1.8,2.8-2.8,4c-0.4,0.5-1.3,0.8-1.9,0.7
						c-1.3-0.1-2,0.5-2.6,1.5c-1.4,2.2-3.1,4.3-4.5,6.6c-0.7,1.1-1.5,1.5-2.7,1.4c-3.6-0.1-6.3-2-8.5-4.5c-3.7-4.3-4.4-9.4-2.4-14.7
						c2-5.3,6.2-8.1,11.6-8.9c3.5-0.5,6.7,0.5,9.7,2.4c2.4,1.5,2.2,4.6-0.1,5.9c-1.3,0.8-2.8,0.6-4.1-0.3c-2.7-1.7-5.4-1.4-8,0.2
						c-2.4,1.5-3.8,5-3,7.7c0.9,3.4,3.5,5.5,6.6,5.7c1,0.1,1.5-0.1,1.5-1.3c-0.1-1.8-0.1-3.7,0-5.5c0-1.9,0.7-2.6,2.7-2.7
						C185.1,12.1,186.3,12.1,187.5,12.1z"/>
				</g>
			</g>
		</g>
	</g>
	<g>
		<g>
			<g>
				<g>
					<path class="st3" d="M103.2,0.5c1.3,0,2.6-0.1,3.9,0c1,0.1,1.5,0.7,1,1.4c-1.7,2.5-3.2,5.1-6.8,5.3c-3.2,0.3-5.7,1.9-6.6,5.3
						c-1.2,4.1,1.8,8.6,6,9.1c3.5,0.4,6.6-1.1,8.1-4.8c0.9-2.2,1.8-2.7,3.7-2.6c2.2,0.1,3.6,2,3,4.2c-1.3,4.6-4.4,7.7-8.9,9.4
						c-7.6,2.8-16.3-1.6-18.4-9.2C85.2,8.1,93.1,0.3,101,0.4C101.8,0.5,102.5,0.4,103.2,0.5C103.2,0.4,103.2,0.4,103.2,0.5z"/>
				</g>
			</g>
		</g>
	</g>
	<g>
		<g>
			<g>
				<g>
					<path class="st3" d="M78.4,14.3c0-3.4-0.1-6.8,0-10.2c0-2.1,1.5-3.6,3.3-3.8c1.6-0.1,3.3,1.1,3.8,2.9c0.2,0.8,0.2,1.6,0.2,2.4
						c0,5.5,0,11.1,0,16.6c0,1.1,0,2.2-0.3,3.2c-0.2,0.8-0.8,1.6-1.4,2.2c-2,1.7-5.1,0.4-5.6-2.3c-0.1-0.5,0-1.1,0-1.6
						C78.4,20.5,78.4,17.4,78.4,14.3L78.4,14.3z"/>
				</g>
			</g>
		</g>
	</g>
	<g>
		<g>
			<g>
				<g>
					<path class="st3" d="M246.6,14.9c0,3.3,0,6.7,0,10c0,1-0.2,1.9-0.8,2.6c-1.2,1.4-2.6,1.6-4,1.1c-1.4-0.5-2.3-1.8-2.3-3.5
						c0-3.1,0-6.2,0-9.3c0-0.5,0-1-0.1-1.5c0-0.2-0.1-0.5-0.2-0.5s-0.4,0.1-0.6,0.2c-0.7,1-1.5,1.9-2.1,3c-0.1,0.2-0.1,0.6,0.1,0.9
						c0.5,0.8,1.1,1.5,1.6,2.3c0.2,0.3,0.4,0.5,0.5,0.8c0.5,1,0.2,1.5-0.9,1.5c-1.1,0-2.1,0-3.2,0c-0.3,0-0.7,0-1,0
						c-0.7,0-1.2,0.3-1.6,0.9c-0.8,1.2-1.7,2.5-2.5,3.7c-0.7,1-1.6,1.7-3,1.7c-1.4,0-2.4-0.5-3.1-1.6c-0.7-1.2-0.8-2.5,0-3.7
						c0.8-1.2,1.7-2.3,2.5-3.5c0.3-0.4,0.5-0.7,0.8-1.1c0.4-0.6,0.1-1.7-0.7-2c-0.1,0-0.4,0.1-0.5,0.2c-0.7,1-1.4,2-2.1,3
						c-1.6,2.2-3.1,4.4-4.7,6.6c-1.3,1.9-2.1,2.7-5.1,1.7c-5.6-1.9-9-5.9-10-11.8c-1.1-7.2,3.8-14.3,11-16c4.1-0.9,7.9-0.2,11.5,2.2
						c2.1,1.4,2,4.9-0.2,5.9c-1.3,0.6-2.5,0.5-3.8-0.2c-1.3-0.8-2.6-1.3-4.2-1.3c-3.3,0-6.7,2.4-7.4,6.1c-0.8,4.2,2.2,8.5,6.5,8.9
						c0.3,0,0.6,0,0.8,0c0.6,0.1,0.9-0.2,0.9-0.8c0-1.9,0.1-3.9-0.1-5.8c-0.1-1.8,1.1-3.1,3-3c2.8,0.1,5.5,0,8.3,0.1
						c0.8,0,1.2-0.2,1.8-0.9c2.5-3.2,5.1-6.4,7.7-9.6c1.2-1.5,2.8-1.8,4.4-1.2c1.6,0.6,2.6,2.1,2.6,3.9
						C246.6,8.2,246.6,11.5,246.6,14.9z"/>
				</g>
			</g>
		</g>
	</g>
	<g>
		<g>
			<g>
				<g>
					<path class="st3" d="M279.7,14.6c0,3.5,0,7,0,10.5c0,1.6-0.8,2.6-2,3.3c-1.2,0.7-2.5,0.4-3.6-0.3c-1-0.7-1.4-1.6-1.4-2.8
						c0-2.8,0-5.7,0-8.5c0-0.8-0.1-1.7-0.2-2.5c-0.5,0.6-1.1,1.2-1.6,1.8c-1.1,1.3-2.2,2.6-3.3,4c-1,1.2-1,1.2,0.1,2.4
						c0.7,0.9,1.5,1.8,2.2,2.7c0.3,0.4,0.6,0.8,0.9,1.2c0.7,1.1,0.2,2.1-1,2.1c-3.6,0-7.2,0-10.8,0c-0.7,0-1.2-0.3-1.4-0.9
						c-0.3-0.6,0.1-1,0.4-1.5c1.1-1.4,2.2-2.7,3.4-4.1c0.3-0.4,0.5-0.6,0.1-1.1c-1.7-2-3.4-4.1-5-6.2c-0.1-0.1-0.2-0.1-0.3-0.1
						c0,0.1-0.1,0.2-0.1,0.3c0,0.4,0,0.9,0,1.3c0,2.9,0,5.8,0,8.6c0,0.9-0.2,1.8-0.7,2.5c-0.9,1.3-2.6,1.8-4,1.4
						c-1.3-0.4-2.4-1.8-2.5-3.2c0-0.1,0-0.2,0-0.3c0-6.9,0-13.8,0-20.6c0-1.6,0.6-2.8,2.1-3.5c1.5-0.8,3.3-0.4,4.5,1
						c1.6,1.9,3.1,3.9,4.7,5.8c1.2,1.5,2.5,3,3.7,4.5c0.4,0.6,0.7,0.5,1.1,0c1.3-1.6,2.6-3.2,3.9-4.7c1.6-2,3.2-3.9,4.9-5.8
						c0.9-1,2-1.4,3.4-1c1.8,0.6,2.6,1.6,2.6,3.5C279.7,7.8,279.7,11.2,279.7,14.6z"/>
				</g>
			</g>
		</g>
	</g>
	<g>
		<g>
			<g>
				<g>
					<path class="st3" d="M303.9,28.8c-1.6,0-3.2,0-4.8,0c-0.3,0-0.6,0-0.8,0c-1.2-0.1-1.5-0.5-0.8-1.5c0.8-1.2,1.7-2.4,2.6-3.6
						c0.7-1,1.6-1.5,3-1.5c1.5,0.1,3.1,0,4.6,0c0.6,0,1.3-0.1,2-0.2c1.4-0.3,1.8-1.8,0.8-2.8c-0.4-0.4-0.9-0.7-1.4-0.9
						c-1.3-0.6-2.6-1.1-4-1.7c-1.5-0.6-2.9-1.3-4.1-2.4c-4.1-3.7-3-9.5,1-12.2c1.5-1.1,3.3-1.6,5.1-1.6c1.8-0.1,3.6-0.1,5.4,0.7
						c2.1,0.9,3.8,2.2,4.9,4.2c0.9,1.7,0.6,3.3-0.8,4.4c-1.2,1-3.3,0.9-4.5-0.4c-0.5-0.6-1-1.2-1.5-1.8c-0.9-1.1-2.3-1.4-3.6-0.9
						c-1.4,0.6-1.8,2.2-0.7,3.2c0.8,0.8,1.9,1.3,2.9,1.8c1.9,1,3.9,1.7,5.7,3c1.1,0.8,2.2,1.8,2.6,3.1c1.4,4.2,0.2,8.9-4.9,10.5
						c-1.4,0.4-2.9,0.7-4.4,0.6C306.8,28.7,305.4,28.8,303.9,28.8z"/>
				</g>
			</g>
		</g>
	</g>
	<g>
		<g>
			<g>
				<g>
					<path class="st3" d="M282,14.7c0-3.8,0-7.5,0-11.3c0-2,0.7-2.7,2.7-2.8c3.5,0,7.1-0.1,10.6,0c2,0,3.4,1.4,3.4,3.1
						c0,1.8-1.3,3.2-3.1,3.2c-1.9,0-3.8,0-5.6,0c-0.8,0-1,0.3-0.9,1c0,0.9,0,1.9,0,2.8c0,0.7,0.2,0.9,0.9,0.8c1.1,0,2.2,0,3.3,0
						c1.7,0,3,1.2,3.1,2.8c0.1,1.6-1.1,3.1-2.9,3.2c-1.2,0.1-2.3,0-3.5,0c-0.6,0-0.9,0.1-0.9,0.8c0.1,1.2,0.1,2.5,0.2,3.8
						c1.1,0,2.3,0.1,3.5,0.1c1.4,0,2.9,0,4.3,0c0.3,0,0.7,0,1,0c0.5,0.1,0.7,0.5,0.4,1c-1,1.5-2,3-3.1,4.5c-0.6,0.8-1.6,1.2-2.6,1.2
						c-2.8,0-5.5,0-8.3,0c-1.7,0-2.4-0.8-2.4-2.5C281.9,22.4,282,18.5,282,14.7z"/>
				</g>
			</g>
		</g>
	</g>
	<g>
		<g>
			<g>
				<polygon class="st3" points="319.2,1.1 320.9,1.1 320.9,6.1 322.1,6.1 322.1,1.1 323.7,1.1 323.7,0 319.2,0 				"/>
				<polygon class="st3" points="328.6,0 327.4,4.2 327.4,4.2 326.1,0 324.4,0 324.4,6.1 325.5,6.1 325.5,1.8 325.5,1.8 326.9,6.1 
					327.8,6.1 329.2,1.8 329.2,1.8 329.2,6.1 330.3,6.1 330.3,0 				"/>
			</g>
		</g>
	</g>
</g>
</svg>
